<?xml version="1.0" encoding="UTF-8"?>
<svg enable-background="new 0 0 350 350" version="1.1" viewBox="0 0 350 350" xml:space="preserve" xmlns="http://www.w3.org/2000/svg">
<style type="text/css">
	.st0{stroke:#BC852C;stroke-width:0;stroke-miterlimit:10;}
	.st1{fill:url(#i);}
	.st2{fill:#11688F;}
	.st3{font-family:'Helvetica';}
	.st4{font-size:33.4735px;}
	.st5{fill:#92B83E;}
	.st6{font-size:22.52px;}
	.st7{font-size:21.382px;}
	.st8{font-size:21.0583px;}
	.st9{fill:url(#h);}
	.st10{fill:url(#g);}
	.st11{fill:url(#f);}
	.st12{fill:url(#e);}
	.st13{fill:url(#d);}
	.st14{fill:url(#c);}
	.st15{fill:url(#b);}
	.st16{fill:url(#a);}
	.st17{fill:url(#q);}
	.st18{fill:url(#p);}
	.st19{fill:url(#o);}
	.st20{fill:#010101;}
	.st21{fill:none;stroke:#010101;stroke-width:0.3972;stroke-miterlimit:10;}
	.st22{fill:url(#n);}
	.st23{fill:url(#m);}
	.st24{fill:url(#l);}
	.st25{fill:url(#k);}
	.st26{fill:url(#j);}
        .st27{font-size:17.0583px;}
</style>
<rect class="st0" width="350" height="350"/>
<linearGradient id="i" x1="173.5" x2="177.03" y1="343.33" y2="6.4075" gradientUnits="userSpaceOnUse">
<stop stop-color="#D9A047" offset="0"/>
<stop stop-color="#D29B42" offset=".1034"/>
<stop stop-color="#D29B42" offset=".1899"/>
<stop stop-color="#E7DE84" offset=".4014"/>
<stop stop-color="#BB8C3C" offset=".6082"/>
<stop stop-color="#B98A39" offset=".8149"/>
<stop stop-color="#DBD796" offset="1"/>
</linearGradient>
<path class="st1" d="m319.5 207.1c-1.4 5.8-3.2 11.4-5.3 16.9 2.1-2.5 4.6-4.9 7-6.2 8.4-4.4 20.4-1 20.4-1s-4.4 10.3-13.1 13.3c-7.8 2.6-14.4 2.1-17.6 1.6-2.6 5.5-5.5 10.9-8.7 16 2.6-2.2 5.7-4.4 8.5-5.3 9.2-3 20.7 2.6 20.7 2.6s-6.2 9.6-15.5 11c-8.4 1.3-15.1-0.5-18.1-1.6-3.6 5.1-7.5 9.9-11.6 14.4 3.1-1.8 6.7-3.6 9.8-4 9.8-1.4 20.3 6.3 20.3 6.3s-8 8.6-17.5 8.3c-8.8-0.2-15.2-3.3-18-4.9-4.4 4.4-9 8.5-13.7 12.2 3.4-1.3 7.3-2.4 10.5-2.3 10.1 0.4 19.3 9.9 19.3 9.9s-9.5 7.2-19.1 5.3c-8.7-1.7-14.6-5.9-17.2-8-4.7 3.4-9.6 6.5-14.5 9.2 3.3-0.6 7-0.8 9.8-0.2 10 2.2 17.7 13.4 17.7 13.4s-10.8 5.5-20.1 1.9c-8.1-3.2-13.2-8.1-15.6-10.8-5.2 2.5-10.5 4.6-15.7 6.2 3.4 0.1 7 0.4 9.6 1.5 9.7 3.9 15.4 16.6 15.4 16.6s-11.9 3.6-20.5-1.6c-7.9-4.8-12.2-11-13.9-14-12.3 2.2-22.6 5.7-30.9 9.4 15.1 8 21.3 15.3 21.3 15.3l-5.4 4.8s-7-8.6-22.6-16.8c-15.5 8.3-22.6 16.8-22.6 16.8l-5.4-4.8s6.2-7.4 21.3-15.3c-8.4-3.8-18.6-7.2-30.9-9.4-1.7 3-6 9.2-13.9 14-8.7 5.3-20.5 1.6-20.5 1.6s5.7-12.6 15.4-16.6c2.7-1.1 6.2-1.5 9.6-1.5-5.2-1.6-10.4-3.7-15.7-6.2-2.3 2.7-7.4 7.6-15.6 10.8-9.3 3.6-20.1-1.9-20.1-1.9s7.6-11.2 17.7-13.4c2.8-0.6 6.4-0.3 9.8 0.2-4.9-2.7-9.7-5.8-14.5-9.2-2.6 2.1-8.5 6.3-17.2 8-9.6 1.9-19.1-5.3-19.1-5.3s9.3-9.5 19.3-9.9c3.2-0.1 7.1 1 10.5 2.3-4.7-3.8-9.3-7.8-13.7-12.2-2.8 1.6-9.2 4.7-18 4.9-9.5 0.2-17.5-8.3-17.5-8.3s10.6-7.6 20.3-6.3c3.1 0.4 6.7 2.2 9.8 4-4.1-4.5-8-9.4-11.6-14.4-3 1.1-9.7 2.9-18.2 1.6-9.2-1.4-15.5-11-15.5-11s11.5-5.6 20.7-2.6c2.8 0.9 5.9 3.1 8.5 5.3-3.2-5.1-6.1-10.4-8.7-16-3.2 0.5-9.8 1.1-17.6-1.6-8.7-2.9-13.1-13.3-13.1-13.3s12-3.4 20.4 1c2.4 1.3 4.9 3.8 7 6.2-2.1-5.4-3.9-11.1-5.3-16.9-3.1 0-9.7-0.6-16.9-4.5-7.9-4.3-10.4-15-10.4-15s12.2-1.2 19.5 4.5c2.3 1.8 4.3 4.8 6 7.7-1.3-6.1-2.2-12.2-2.7-18.3-3-0.6-9.2-2.3-15.4-7.2-6.5-5.5-7.1-16.3-7.1-16.3s12 0.9 18.1 7.6c1.8 2 3.3 5.2 4.4 8.3-0.2-6.4 0.1-12.7 0.8-18.9-2.7-1-8.6-3.7-13.9-9.7-5.7-6.5-4.4-17-4.4-17s11.4 2.9 16.1 10.4c1.6 2.5 2.5 6.3 3 9.6 1-6.7 2.4-13.2 4.3-19.6-2.3-1.3-7.8-4.9-12-11.8-4.4-7.2-1.4-17.1-1.4-17.1s10.5 4.7 13.8 12.8c1.2 3 1.3 7.3 1.2 10.8 2.2-6.8 4.8-13.3 7.8-19.6-2-1.6-6.7-6.1-9.6-13.5-3-7.7 1.6-16.8 1.6-16.8s9.4 6.4 11.1 14.7c0.7 3 0.1 7.1-0.6 10.4 3.3-6.4 7-12.4 11-17.9-1.7-2.1-5.3-7-6.8-14.4-1.6-8 4.4-15.9 4.4-15.9s7.9 7.7 8.3 16.1c0.1 2.8-1 6.4-2.1 9.3 4.4-5.5 9-10.4 13.8-14.6-1.2-2.1-4.1-7.7-4.3-15.4-0.2-8 6.9-14.6 6.9-14.6s6.4 8.8 5.2 17c-0.4 3.2-2.7 7.2-4.5 10.1 5.9-5.1 11.6-9.4 17.1-13-0.8-2-2.8-8-1.6-15.9 1.2-7.7 9.2-12.9 9.2-12.9s4.6 9.6 2.2 17.3c-1.1 3.3-4.4 7.2-6.8 9.6 7.1-4.5 13.8-7.8 19.5-10.3-0.4-1.9-1.5-8.2 1.1-15.7 2.4-7.3 11.1-10.9 11.1-10.9s2.8 10-0.9 17c-1.7 3.3-6 6.6-8.7 8.5 3.7-1.5 7-2.7 9.6-3.5 0 0.2 0.1 0.3 0.2 0.5-3.6 1.2-8.2 3.1-13.7 5.6 2.7-0.5 9.8-1.6 14-0.2 7.5 2.5 12.4 11.6 12.4 11.6s-8.7 3.3-15.5-0.2c-7.6-3.9-11.2-9.6-11.9-10.8-6 2.9-12.8 6.7-20 11.7 3.1-1.1 9-2.8 13-2.3 8 1.1 14.6 9.5 14.6 9.5s-8.2 4.9-15.6 2.6c-7.8-2.4-12.4-7.1-13.7-8.6-5.4 3.9-11.1 8.4-16.8 13.7-0.4 0.4-0.9 0.8-1.3 1.2 3-1.7 8.4-4.4 12.5-4.5 8.2-0.3 16.3 7 16.3 7s-7.4 6.4-15.3 5.4c-8.4-1.1-13.8-5-15.3-6.2-5.4 5.2-10.5 11.2-15.2 18 2.7-2.2 7.7-5.9 11.7-6.7 8.2-1.7 17.6 4.1 17.6 4.1s-6.3 7.7-14.4 8.1c-8.4 0.8-14.5-2.1-16.4-3-4 5.9-7.6 12.3-10.8 19.1 2.4-2.7 6.1-6.1 9.4-7.5 7.9-3.2 18.4 1 18.4 1s-4.9 8.9-13 10.7c-7.8 1.7-14 0.3-16.5-0.4-2.8 6.3-5.2 13-7.2 19.8 2-3 4.7-6.6 7.6-8.4 7.4-4.6 18.7-2.3 18.7-2.3s-3.4 9.8-11.2 13c-7.3 3-13.7 2.8-16.5 2.5-1.7 6.8-3 13.8-3.7 20.9 1.5-3.4 3.6-7.6 6.2-9.9 6.6-6 18.4-5.6 18.4-5.6s-1.7 10.4-8.9 15.1c-6.8 4.4-13.3 5.3-16.1 5.5-0.5 6.9-0.5 14 0 21 0.9-3.7 2.3-8.4 4.5-11.2 5.6-7.2 17.5-8.9 17.5-8.9s0.2 10.8-6.3 16.7c-6.1 5.6-12.4 7.6-15.2 8.3 0.7 6.3 1.9 12.7 3.6 18.9 0.3-3.7 0.9-8 2.5-10.9 4.4-8.2 16-12 16-12s2.1 10.8-3.4 17.9c-5 6.5-10.8 9.7-13.6 11 1.8 6.3 4 12.3 6.7 18.2-0.4-3.8-0.5-8.4 0.5-11.6 2.9-9 14-14.9 14-14.9s4 10.5-0.2 18.6c-3.8 7.4-9.1 11.6-11.7 13.4 2.8 5.5 5.9 10.8 9.4 15.8-0.9-3.5-1.7-7.6-1.2-10.8 1.4-9.6 11.4-17.5 11.4-17.5s5.9 9.8 3.1 18.7c-2.4 7.8-6.7 12.9-9.1 15.3 3.6 4.8 7.5 9.3 11.5 13.5-1.5-3.2-2.8-6.9-2.9-9.9-0.3-9.9 8.4-19.6 8.4-19.6s7.7 8.8 6.4 18.3c-1.1 8.1-4.3 13.9-6.3 16.8 4.3 4 8.7 7.8 13.3 11.2-2-2.9-3.8-6.3-4.5-9.2-2.1-9.9 4.9-21.1 4.9-21.1s9.3 7.5 9.7 17.2c0.4 8.3-1.9 14.7-3.4 18 5.1 3.4 10.3 6.4 15.5 9-2.7-2.7-5.4-6-6.7-9-3.8-9.5 1.2-22.1 1.2-22.1s10.6 5.9 12.8 15.6c1.9 8.4 0.7 15.4-0.3 18.9 5.5 2.3 10.9 4.2 16.2 5.6-3-2.2-6.1-4.8-7.8-7.5-5.5-8.9-2.7-22.5-2.7-22.5s11.7 4 15.6 13.4c3.2 7.6 3.4 14.4 3.1 18.2 7.7 1.5 14.7 3.4 20.9 5.6 4.3 1.5 8.2 3.1 11.7 4.7 3.5-1.6 7.4-3.2 11.7-4.7 6.2-2.2 13.2-4.2 20.9-5.6-0.2-3.8 0-10.6 3.1-18.2 3.9-9.4 15.6-13.4 15.6-13.4s2.8 13.5-2.7 22.5c-1.7 2.7-4.8 5.4-7.8 7.5 5.3-1.4 10.7-3.2 16.2-5.6-0.9-3.5-2.1-10.4-0.3-18.9 2.1-9.7 12.8-15.6 12.8-15.6s5 12.6 1.2 22.1c-1.2 3.1-4 6.3-6.7 9 5.2-2.6 10.4-5.6 15.5-9-1.5-3.3-3.7-9.7-3.4-18 0.4-9.7 9.7-17.2 9.7-17.2s7 11.3 4.9 21.1c-0.6 3-2.5 6.3-4.5 9.2 4.6-3.4 9.1-7.2 13.3-11.2-2-2.9-5.3-8.7-6.3-16.8-1.2-9.5 6.4-18.3 6.4-18.3s8.7 9.7 8.4 19.6c-0.1 3-1.4 6.7-2.9 9.9 4.1-4.2 7.9-8.7 11.5-13.5-2.4-2.4-6.7-7.5-9.1-15.3-2.8-8.9 3.1-18.7 3.1-18.7s10 7.9 11.4 17.5c0.5 3.2-0.3 7.3-1.3 10.8 3.4-5 6.6-10.3 9.4-15.8-2.6-1.8-7.9-6-11.7-13.4-4.2-8.1-0.2-18.6-0.2-18.6s11 5.9 14 14.9c1.1 3.3 0.9 7.9 0.5 11.7 2.6-5.8 4.9-11.9 6.7-18.2-2.8-1.3-8.6-4.5-13.6-11-5.5-7.1-3.4-17.9-3.4-17.9s11.6 3.8 16 12c1.6 2.9 2.2 7.3 2.5 11 1.7-6.3 2.9-12.6 3.6-19-2.8-0.7-9.2-2.8-15.2-8.3-6.5-6-6.3-16.7-6.3-16.7s11.9 1.7 17.5 8.9c2.2 2.8 3.7 7.5 4.5 11.2 0.6-7.1 0.5-14.1 0-21.1-2.8-0.2-9.3-1.1-16.1-5.5-7.3-4.6-8.9-15.1-8.9-15.1s11.8-0.4 18.4 5.6c2.6 2.3 4.8 6.6 6.2 10-0.8-7.1-2-14.2-3.7-21-2.8 0.3-9.2 0.5-16.5-2.5-7.8-3.2-11.2-13-11.2-13s11.3-2.4 18.7 2.3c2.8 1.8 5.6 5.4 7.6 8.4-2-6.9-4.4-13.5-7.2-19.9-2.5 0.7-8.8 2.2-16.5 0.4-8.1-1.8-13-10.7-13-10.7s10.5-4.2 18.4-1c3.3 1.3 6.9 4.8 9.4 7.5-3.2-6.8-6.9-13.3-10.8-19.2-1.8 1-7.9 3.9-16.3 3.5-8.1-0.4-14.4-8.1-14.4-8.1s9.4-5.8 17.6-4.1c4 0.9 9.1 4.6 11.7 6.8-4.7-6.8-9.8-12.8-15.2-18-1.5 1.2-6.9 5.1-15.3 6.2-7.9 1-15.3-5.4-15.3-5.4s8.1-7.2 16.3-7c4.1 0.1 9.6 2.9 12.6 4.5-0.4-0.4-0.9-0.8-1.3-1.2-5.7-5.3-11.4-9.9-16.8-13.7-1.3 1.5-5.9 6.1-13.7 8.6-7.4 2.3-15.6-2.6-15.6-2.6s6.6-8.4 14.6-9.5c4-0.6 9.9 1.2 13 2.3-7.3-5-14.1-8.8-20.1-11.7-0.7 1.2-4.3 6.9-11.9 10.8-6.8 3.5-15.5 0.2-15.5 0.2s4.9-9.2 12.4-11.6c4.3-1.4 11.4-0.3 14.1 0.2-5.3-2.5-9.8-4.3-13.3-5.5 0-0.2 0.1-0.3 0.1-0.5 2.6 0.8 5.7 1.9 9.3 3.4-2.7-1.9-7-5.3-8.7-8.5-3.7-7-0.9-17-0.9-17s8.6 3.6 11.1 10.9c2.5 7.6 1.5 13.9 1.1 15.7 5.7 2.4 12.3 5.8 19.5 10.2-2.4-2.5-5.7-6.3-6.7-9.6-2.5-7.7 2.2-17.3 2.2-17.3s8 5.2 9.2 12.9c1.2 7.9-0.8 13.9-1.6 15.9 5.5 3.6 11.2 7.9 17.1 13-1.9-2.9-4.1-6.8-4.5-10-1.1-8.2 5.2-17 5.2-17s7.1 6.6 6.9 14.6c-0.2 7.7-3 13.3-4.3 15.4 4.8 4.2 9.4 9.1 13.8 14.6-1.2-3-2.2-6.5-2.1-9.3 0.3-8.4 8.3-16.1 8.3-16.1s6 7.9 4.4 15.9c-1.5 7.4-5.1 12.4-6.8 14.4 4 5.5 7.7 11.5 11 17.8-0.7-3.3-1.3-7.4-0.6-10.4 1.8-8.4 11.1-14.7 11.1-14.7s4.6 9 1.6 16.8c-2.9 7.4-7.6 11.8-9.6 13.5 3 6.2 5.6 12.7 7.8 19.5-0.1-3.5 0-7.8 1.2-10.8 3.3-8.1 13.8-12.8 13.8-12.8s3 9.9-1.4 17.1c-4.2 6.9-9.7 10.5-12 11.8 1.8 6.4 3.2 12.9 4.3 19.6 0.5-3.3 1.4-7.1 3-9.6 4.7-7.6 16.1-10.4 16.1-10.4s1.3 10.5-4.4 17c-5.3 6-11.2 8.7-13.9 9.6 0.7 6.2 0.9 12.5 0.8 18.9 1.1-3 2.5-6.2 4.4-8.2 6.1-6.8 18.1-7.6 18.1-7.6s-0.5 10.8-7.4 16.3c-6.2 5-12.4 6.6-15.4 7.2-0.5 6.1-1.4 12.2-2.7 18.2 1.6-2.9 3.7-5.9 6-7.7 7.3-5.7 19.5-4.5 19.5-4.5s-2.5 10.7-10.4 15c-6.6 3.9-13.2 4.4-16.3 4.4z"/>
<text class="st2 st3 st4" transform="translate(175.99 33.799)" alignment-baseline="middle" text-anchor="middle">2018</text>
<path class="st5" d="M133.5,72.8H125v-3.1h20.6v3.1h-8.5v24.8h-3.6V72.8z"/>
<path class="st5" d="m171.5 83.4c0 9.6-5.8 14.7-12.9 14.7-7.4 0-12.5-5.7-12.5-14.1 0-8.9 5.5-14.6 12.9-14.6 7.5-0.1 12.5 5.7 12.5 14zm-21.7 0.5c0 6 3.2 11.3 8.9 11.3s8.9-5.3 8.9-11.6c0-5.5-2.9-11.3-8.9-11.3-5.9-0.1-8.9 5.4-8.9 11.6z"/>
<path class="st5" d="m176.1 70.1c1.7-0.3 4-0.5 6.9-0.5 3.6 0 6.2 0.8 7.8 2.3 1.5 1.3 2.4 3.4 2.4 5.8 0 2.5-0.7 4.5-2.2 6-1.9 2-5 3.1-8.5 3.1-1.1 0-2.1 0-2.9-0.2v11.2h-3.6v-27.7zm3.6 13.4c0.8 0.2 1.8 0.3 3 0.3 4.3 0 7-2.1 7-6 0-3.7-2.6-5.5-6.6-5.5-1.6 0-2.8 0.1-3.4 0.3v10.9z"/>
<path class="st5" d="m206.5 93.5c1 0.7 3.4 1.7 6 1.7 4.7 0 6.1-3 6.1-5.2 0-3.8-3.4-5.4-7-5.4h-2v-2.7h2c2.6 0 6-1.4 6-4.6 0-2.2-1.4-4.1-4.7-4.1-2.2 0-4.2 1-5.4 1.8l-1-2.6c1.4-1 4.1-2.1 7-2.1 5.3 0 7.7 3.1 7.7 6.4 0 2.8-1.7 5.1-5 6.3v0.1c3.3 0.7 6 3.1 6 6.9 0 4.3-3.4 8.1-9.8 8.1-3 0-5.7-1-7-1.8l1.1-2.8z"/>
<text class="st5 st3 st6" transform="translate(173.82 143.16)" alignment-baseline="middle" text-anchor="middle">HYPNOTHERAPY</text>
<text class="st5 st3 st7" transform="translate(173.34 180.06)" alignment-baseline="middle" text-anchor="middle">IN</text>
<text class="st5 st3 st8" transform="translate(173.78 216.96)" alignment-baseline="middle" text-anchor="middle">LONDON</text>
<linearGradient id="h" x1="108.24" x2="15.59" y1="-372.97" y2="-418.17" gradientTransform="translate(0 672.5)" gradientUnits="userSpaceOnUse">
<stop stop-color="#2A1C12" offset="0"/>
<stop stop-color="#302013" offset=".026319"/>
<stop stop-color="#3D2918" offset=".065564"/>
<stop stop-color="#54371F" offset=".1129"/>
<stop stop-color="#794923" offset=".166"/>
<stop stop-color="#864F22" offset=".1818"/>
<stop stop-color="#B2813A" offset=".2545"/>
<stop stop-color="#8E5D26" offset=".2788"/>
<stop stop-color="#976628" offset=".3318"/>
<stop stop-color="#AA7F39" offset=".4294"/>
<stop stop-color="#D1B260" offset=".5598"/>
<stop stop-color="#F8E887" offset=".6606"/>
<stop stop-color="#864F22" offset=".8667"/>
</linearGradient>
<path class="st9" d="m116.3 284.5c0.7-3.1 0-4.3-8-6.7s-63.1-12.2-75.4-32.3c-0.4 18.5 16.1 29.9 16.1 29.9s-24.8 0-37.1-6.1c12 17.2 53.1 28 53.1 28l39.9-6.2 11.4-6.6z"/>
<linearGradient id="g" x1="246.43" x2="333.06" y1="-375.33" y2="-414.96" gradientTransform="translate(0 672.5)" gradientUnits="userSpaceOnUse">
<stop stop-color="#2A1C12" offset="0"/>
<stop stop-color="#302013" offset=".026319"/>
<stop stop-color="#3D2918" offset=".065564"/>
<stop stop-color="#54371F" offset=".1129"/>
<stop stop-color="#794923" offset=".166"/>
<stop stop-color="#864F22" offset=".1818"/>
<stop stop-color="#B2813A" offset=".2545"/>
<stop stop-color="#8E5D26" offset=".2788"/>
<stop stop-color="#976628" offset=".2959"/>
<stop stop-color="#AA803A" offset=".3274"/>
<stop stop-color="#D1B363" offset=".3695"/>
<stop stop-color="#F7E68A" offset=".4"/>
<stop stop-color="#E8B965" offset=".5818"/>
<stop stop-color="#F8E887" offset=".6364"/>
<stop stop-color="#864F22" offset=".8667"/>
</linearGradient>
<path class="st10" d="m235.9 284.3c-0.7-3.1 0-4.3 8-6.7s63.1-12.2 75.4-32.3c0.4 18.5-16.1 29.9-16.1 29.9s24.8 0 37.1-6.1c-12 17.2-53.1 28-53.1 28l-39.9-6.2-11.4-6.6z"/>
<linearGradient id="f" x1="240.11" x2="318.59" y1="-388.87" y2="-424.77" gradientTransform="translate(0 672.5)" gradientUnits="userSpaceOnUse">
<stop stop-color="#2A1C12" offset=".012121"/>
<stop stop-color="#8E5D26" offset=".2606"/>
<stop stop-color="#99682A" offset=".2897"/>
<stop stop-color="#B7873F" offset=".3434"/>
<stop stop-color="#E8B965" offset=".4"/>
<stop stop-color="#864F22" offset=".6061"/>
<stop stop-color="#2A1C12" offset="1"/>
</linearGradient>
<path class="st11" d="m243.9 278.3c8-2.4 63-12.2 75.4-32.3v-0.8c-12.3 20.1-67.4 29.9-75.4 32.3-7 2.1-8.4 3.3-8.2 5.6 0.2-1.7 2.1-2.9 8.2-4.8z"/>
<linearGradient id="e" x1="306.54" x2="337.89" y1="-392.8" y2="-407.14" gradientTransform="translate(0 672.5)" gradientUnits="userSpaceOnUse">
<stop stop-color="#2A1C12" offset=".012121"/>
<stop stop-color="#8E5D26" offset=".2606"/>
<stop stop-color="#99682A" offset=".2897"/>
<stop stop-color="#B7873F" offset=".3434"/>
<stop stop-color="#E8B965" offset=".4"/>
<stop stop-color="#864F22" offset=".6061"/>
<stop stop-color="#2A1C12" offset="1"/>
</linearGradient>
<path class="st12" d="m304.1 275.2c-0.6 0.5-1 0.8-1 0.8s23.7 0 36.3-5.7c0.3-0.4 0.6-0.8 0.9-1.2-10.9 5.4-31.4 6-36.2 6.1z"/>
<linearGradient id="d" x1="17.631" x2="44.091" y1="-393.86" y2="-405.97" gradientTransform="translate(0 672.5)" gradientUnits="userSpaceOnUse">
<stop stop-color="#2A1C12" offset=".012121"/>
<stop stop-color="#8E5D26" offset=".2606"/>
<stop stop-color="#99682A" offset=".2897"/>
<stop stop-color="#B7873F" offset=".3434"/>
<stop stop-color="#E8B965" offset=".4"/>
<stop stop-color="#864F22" offset=".6061"/>
<stop stop-color="#2A1C12" offset="1"/>
</linearGradient>
<path class="st13" d="m49.1 276.2s-0.4-0.2-1-0.8c-4.7-0.1-25.3-0.7-36.1-6.1 0.3 0.4 0.6 0.8 0.9 1.2 12.5 5.7 36.2 5.7 36.2 5.7z"/>
<linearGradient id="c" x1="49.382" x2="101.57" y1="-396.4" y2="-420.28" gradientTransform="translate(0 672.5)" gradientUnits="userSpaceOnUse">
<stop stop-color="#2A1C12" offset=".012121"/>
<stop stop-color="#8E5D26" offset=".2606"/>
<stop stop-color="#99682A" offset=".2897"/>
<stop stop-color="#B7873F" offset=".3434"/>
<stop stop-color="#E8B965" offset=".4"/>
<stop stop-color="#864F22" offset=".6061"/>
<stop stop-color="#2A1C12" offset="1"/>
</linearGradient>
<path class="st14" d="m108.4 277.8c-8-2.4-63.1-12.2-75.4-32.3v0.8c12.3 20.1 67.4 29.8 75.4 32.2 6.2 1.8 8 3 8.2 4.8 0.2-2.2-1.3-3.4-8.2-5.5z"/>
<linearGradient id="b" x1="75.046" x2="118.93" y1="-392.92" y2="-374.92" gradientTransform="translate(0 672.5)" gradientUnits="userSpaceOnUse">
<stop stop-color="#2E191B" offset="0"/>
<stop stop-color="#513126" offset=".1864"/>
<stop stop-color="#7C492A" offset=".3758"/>
<stop stop-color="#78462A" offset=".4147"/>
<stop stop-color="#6A3F29" offset=".4669"/>
<stop stop-color="#543226" offset=".5266"/>
<stop stop-color="#38201F" offset=".5915"/>
<stop stop-color="#2E191B" offset=".6121"/>
<stop stop-color="#8E5D26" offset=".8364"/>
<stop stop-color="#845724" offset=".8604"/>
<stop stop-color="#694722" offset=".9047"/>
<stop stop-color="#432F1C" offset=".9638"/>
<stop stop-color="#2A1C12" offset="1"/>
</linearGradient>
<path class="st15" d="m74.3 279.4c2-2.9 9.6-2.1 21.4 1.5s18.5 4.3 20.9 1.5c1.1 4.2-9.1 15.3-9.1 15.3l-29-2.6s-3.5-0.9-3.8-1.6-0.4-14.1-0.4-14.1z"/>
<linearGradient id="a" x1="275.02" x2="235.45" y1="-392.93" y2="-374.71" gradientTransform="translate(0 672.5)" gradientUnits="userSpaceOnUse">
<stop stop-color="#2E191B" offset="0"/>
<stop stop-color="#513126" offset=".1864"/>
<stop stop-color="#7C492A" offset=".3758"/>
<stop stop-color="#78462A" offset=".4147"/>
<stop stop-color="#6A3F29" offset=".4669"/>
<stop stop-color="#543226" offset=".5266"/>
<stop stop-color="#38201F" offset=".5915"/>
<stop stop-color="#2E191B" offset=".6121"/>
<stop stop-color="#8E5D26" offset=".8364"/>
<stop stop-color="#845724" offset=".8604"/>
<stop stop-color="#694722" offset=".9047"/>
<stop stop-color="#432F1C" offset=".9638"/>
<stop stop-color="#2A1C12" offset="1"/>
</linearGradient>
<path class="st16" d="m278 279.4c-2-2.9-9.6-2.1-21.4 1.5s-18.5 4.3-20.9 1.5c-1.1 4.2 9.1 15.3 9.1 15.3l29-2.6s3.5-0.9 3.8-1.6c0.4-0.7 0.4-14.1 0.4-14.1z"/>
<linearGradient id="q" x1="65.812" x2="268.74" y1="-385.74" y2="-305.69" gradientTransform="translate(0 672.5)" gradientUnits="userSpaceOnUse">
<stop stop-color="#2A1C12" offset="0"/>
<stop stop-color="#2D1E14" offset=".00012292"/>
<stop stop-color="#432C1A" offset=".001217"/>
<stop stop-color="#55381F" offset=".0024362"/>
<stop stop-color="#654022" offset=".0038339"/>
<stop stop-color="#744823" offset=".005467"/>
<stop stop-color="#7E4C22" offset=".0074862"/>
<stop stop-color="#844E22" offset=".010319"/>
<stop stop-color="#864F22" offset=".018182"/>
<stop stop-color="#F7E68A" offset=".036364"/>
<stop stop-color="#8E5D26" offset=".072727"/>
<stop stop-color="#99682A" offset=".082861"/>
<stop stop-color="#B7873F" offset=".1015"/>
<stop stop-color="#E8B965" offset=".1212"/>
<stop stop-color="#F8E887" offset=".1697"/>
<stop stop-color="#B2813A" offset=".2303"/>
<stop stop-color="#E6B963" offset=".3333"/>
</linearGradient>
<path class="st17" d="m74.6 279.2-16.9 22.7c-3.9 4.8-3.9 4.8-1.4 7 25.1 15.7 76.1 21.6 117.4 22.1h1.7v-28.2c-97.5-0.8-100.8-23.6-100.8-23.6z"/>
<linearGradient id="p" x1="161.6" x2="284.06" y1="-329.84" y2="-390.52" gradientTransform="translate(0 672.5)" gradientUnits="userSpaceOnUse">
<stop stop-color="#E6B963" offset=".3212"/>
<stop stop-color="#F5E082" offset=".5461"/>
<stop stop-color="#F8E887" offset=".5879"/>
<stop stop-color="#F1DF81" offset=".6206"/>
<stop stop-color="#E1CB73" offset=".6646"/>
<stop stop-color="#CCAD5D" offset=".7148"/>
<stop stop-color="#B28A41" offset=".7697"/>
<stop stop-color="#946327" offset=".8279"/>
<stop stop-color="#8E5D26" offset=".8364"/>
<stop stop-color="#99682A" offset=".8541"/>
<stop stop-color="#B7873F" offset=".8868"/>
<stop stop-color="#E8B965" offset=".9212"/>
<stop stop-color="#864F22" offset=".9818"/>
<stop stop-color="#2A1C12" offset="1"/>
</linearGradient>
<path class="st18" d="m178.5 330.9c41.3-0.4 92.3-6.4 117.4-22.1 2.4-2.1 2.4-2.1-1.4-7l-16.9-22.7s-3.3 22.9-101.5 23.6h-0.8v28.2h0.8 2.4z"/>
<linearGradient id="o" x1="74.57" x2="277.53" y1="-381" y2="-381" gradientTransform="translate(0 672.5)" gradientUnits="userSpaceOnUse">
<stop stop-color="#2A1C12" offset=".012121"/>
<stop stop-color="#8E5D26" offset=".2606"/>
<stop stop-color="#99682A" offset=".2897"/>
<stop stop-color="#B7873F" offset=".3434"/>
<stop stop-color="#E8B965" offset=".4"/>
<stop stop-color="#864F22" offset=".6061"/>
<stop stop-color="#2A1C12" offset="1"/>
</linearGradient>
<path class="st19" d="m277.5 280.3s-3.3 22.9-101.5 23.6c-98.1-0.6-101.4-23.6-101.4-23.6v-1.1s3.3 22.9 101.5 23.6c98.2-0.7 101.5-23.6 101.5-23.6l-0.1 1.1z"/>
<path class="st20" d="m86.6 300.4-4.9-1.4 0.5-1.8 12 3.5-0.5 1.8-4.9-1.4-4.2 14.3-2.1-0.6 4.1-14.4z"/>
<path class="st20" d="m97.7 301.6-1.6 6.8 7.9 1.8 1.6-6.8 2.1 0.5-3.8 16.4-2.1-0.5 1.8-7.7-7.9-1.8-1.8 7.7-2.1-0.5 3.8-16.4 2.1 0.5z"/>
<path class="st20" d="m111.1 304.8c1.1 0 2.7 0.1 4.2 0.4 2.3 0.4 3.7 1.1 4.6 2.2 0.7 0.9 1 2.1 0.8 3.4-0.4 2.2-2 3.4-3.9 3.7v0.1c1.2 0.7 1.7 2 1.8 3.8 0.1 2.4 0.2 4.1 0.5 4.8l-2.2-0.4c-0.2-0.5-0.3-2-0.4-4.1-0.1-2.4-0.8-3.4-2.7-3.8l-2-0.4-1.3 7.2-2.1-0.4 2.7-16.5zm0.8 7.9 2.2 0.4c2.3 0.4 4-0.6 4.3-2.5 0.4-2.1-1-3.3-3.3-3.8-1-0.2-1.8-0.2-2.1-0.2l-1.1 6.1z"/>
<path class="st20" d="m131.6 316.7-6.5-0.8-0.8 6 7.2 1-0.2 1.8-9.4-1.2 2.2-16.7 9 1.2-0.2 1.8-6.8-0.9-0.7 5.3 6.5 0.9-0.3 1.6z"/>
<path class="st20" d="m143.9 317.9-6.5-0.6-0.6 6 7.3 0.7-0.2 1.8-9.4-0.9 1.5-16.7 9.1 0.8-0.1 2-6.9-0.6-0.5 5.3 6.4 0.6-0.1 1.6z"/>
<path class="st20" d="m153.2 309.8c1-0.2 2.5-0.2 4-0.2 2.2 0.1 3.5 0.5 4.6 1.4 0.8 0.7 1.4 1.7 1.3 3-0.1 1.6-1.2 3-3 3.6 1.6 0.5 3.4 1.9 3.3 4.3 0 1.4-0.7 2.5-1.5 3.3-1.2 1-3.1 1.4-5.9 1.4-1.5 0-2.6-0.2-3.4-0.3l0.6-16.5zm1.6 15.1c0.4 0.1 1 0.2 1.8 0.2 2.2 0.1 4.3-0.6 4.4-3.1 0.1-2.3-1.8-3.3-4.2-3.4l-1.8-0.1-0.2 6.4zm0.3-8.1 2 0.1c2.3 0.1 3.7-1 3.7-2.7 0.1-2-1.4-2.8-3.6-2.9-1 0-1.6 0-1.9 0.1l-0.2 5.4z"/>
<path class="st20" d="m175.2 319h-6.6v6.1h7.3v1.8h-9.5l0.1-16.8h9.1v1.8h-6.9v5.3h6.6v1.8z"/>
<path class="st20" d="m178.7 324.2c1 0.6 2.4 1 3.9 1 2.2 0 3.5-1.3 3.5-3 0-1.6-1-2.5-3.3-3.3-2.8-0.9-4.5-2.3-4.6-4.6-0.1-2.6 2.1-4.6 5.3-4.7 1.7 0 3 0.3 3.7 0.7l-0.6 1.8c-0.6-0.3-1.7-0.8-3.2-0.7-2.3 0.1-3.1 1.5-3.1 2.6 0 1.6 1.1 2.3 3.4 3.1 2.9 1 4.4 2.3 4.4 4.8 0.1 2.6-1.8 4.9-5.8 5-1.6 0-3.4-0.4-4.3-1l0.7-1.7z"/>
<path class="st20" d="m193.7 311.4-5.1 0.3-0.1-1.8 12.4-0.7 0.1 1.8-5.1 0.3 0.8 14.9-2.2 0.1-0.8-14.9z"/>
<path class="st20" d="m207.3 308.8c1.1-0.3 2.6-0.6 4.1-0.8 2.3-0.2 3.9 0 5 0.9 0.9 0.7 1.5 1.7 1.6 3.1 0.2 2.2-1 3.8-2.7 4.6v0.1c1.4 0.3 2.2 1.4 2.8 3.1 0.8 2.3 1.3 3.9 1.7 4.4l-2.2 0.2c-0.3-0.4-0.8-1.9-1.5-3.9-0.7-2.3-1.7-3.1-3.7-2.9l-2 0.2 0.7 7.3-2.1 0.2-1.7-16.5zm2.9 7.4 2.2-0.2c2.3-0.2 3.7-1.6 3.5-3.5-0.2-2.1-1.9-2.9-4.1-2.7-1 0.1-1.8 0.3-2.1 0.4l0.5 6z"/>
<path class="st20" d="m224.3 318.4-1.1 5.5-2.2 0.3 3.5-17.4 2.6-0.3 7.8 16-2.3 0.3-2.5-5-5.8 0.6zm5.2-2.4-2.2-4.6c-0.5-1-0.9-2-1.3-2.9-0.1 1-0.3 2.1-0.5 3.1l-1 5 5-0.6z"/>
<path class="st20" d="m236.3 307-5 0.8-0.3-1.8 12.3-1.9 0.3 1.8-5.1 0.8 2.2 14.8-2.2 0.3-2.2-14.8z"/>
<path class="st20" d="m254.7 311.2-6.4 1.1 1 6 7.2-1.3 0.3 1.8-9.3 1.6-2.9-16.6 8.9-1.5 0.3 1.8-6.8 1.2 0.9 5.2 6.4-1.1 0.4 1.8z"/>
<path class="st20" d="m256.2 302c1.3-0.5 2.8-0.9 4.4-1.3 3.1-0.6 5.4-0.4 7.1 0.7 1.7 1 3 2.8 3.5 5.4 0.6 2.7 0.2 5-1.1 6.9-1.2 1.9-3.6 3.2-6.8 3.9-1.5 0.3-2.8 0.5-3.9 0.6l-3.2-16.2zm5.1 14.2c0.6 0 1.4-0.2 2.2-0.3 4.5-0.9 6.5-4 5.6-8.4-0.8-3.9-3.5-5.9-7.9-5-1.1 0.2-1.9 0.5-2.5 0.7l2.6 13z"/>
<circle class="st21" cx="275.3" cy="299.8" r="3.9"/>
<path class="st20" d="m273.1 297.9c0.3-0.2 0.8-0.4 1.2-0.6 0.7-0.2 1.2-0.3 1.6-0.1 0.3 0.1 0.6 0.4 0.7 0.8 0.2 0.6 0 1.2-0.5 1.6 0.4 0 0.8 0.3 1.1 0.8 0.4 0.6 0.7 1.1 0.9 1.2l-0.7 0.2c-0.1-0.1-0.4-0.5-0.8-1.1s-0.8-0.8-1.4-0.6l-0.6 0.2 0.8 2.1-0.6 0.2-1.7-4.7zm1.4 2.1 0.6-0.2c0.7-0.2 1-0.8 0.8-1.4s-0.8-0.8-1.5-0.5c-0.3 0.1-0.5 0.2-0.6 0.3l0.7 1.8z"/>
<linearGradient id="n" x1="323.5" x2="341.35" y1="-201.64" y2="-199.09" gradientTransform="matrix(-.8002 -.5998 .5998 -.8002 593.39 294.68)" gradientUnits="userSpaceOnUse">
<stop stop-color="#D9A048" offset="0"/>
<stop stop-color="#D39C43" offset=".081767"/>
<stop stop-color="#C1903B" offset=".1818"/>
<stop stop-color="#BA8A3A" offset=".222"/>
<stop stop-color="#F0ECB4" offset=".4512"/>
<stop stop-color="#BB8C3D" offset=".6707"/>
<stop stop-color="#BA8A3A" offset=".8366"/>
<stop stop-color="#F0ECB4" offset="1"/>
</linearGradient>
<polygon class="st22" points="205.5 252.6 198.2 251.9 204.4 255.9 201.5 262.7 207.2 257.9 212.8 262.8 210 256 216.5 252.1 209 252.6 207.4 245.4"/>
<linearGradient id="m" x1="375.67" x2="393.52" y1="-240.75" y2="-238.19" gradientTransform="matrix(-.8002 -.5998 .5998 -.8002 593.39 294.68)" gradientUnits="userSpaceOnUse">
<stop stop-color="#D9A048" offset="0"/>
<stop stop-color="#D39C43" offset=".081767"/>
<stop stop-color="#C1903B" offset=".1818"/>
<stop stop-color="#BA8A3A" offset=".222"/>
<stop stop-color="#F0ECB4" offset=".4512"/>
<stop stop-color="#BB8C3D" offset=".6707"/>
<stop stop-color="#BA8A3A" offset=".8366"/>
<stop stop-color="#F0ECB4" offset="1"/>
</linearGradient>
<polygon class="st23" points="140.3 252.6 133 251.9 139.2 255.9 136.3 262.7 142 257.9 147.5 262.8 144.8 256 151.2 252.1 143.8 252.6 142.2 245.4"/>
<linearGradient id="l" x1="361.62" x2="383.33" y1="-229.99" y2="-226.89" gradientTransform="matrix(-.8002 -.5998 .5998 -.8002 593.39 294.68)" gradientUnits="userSpaceOnUse">
<stop stop-color="#D9A048" offset="0"/>
<stop stop-color="#D39C43" offset=".081767"/>
<stop stop-color="#C1903B" offset=".1818"/>
<stop stop-color="#BA8A3A" offset=".222"/>
<stop stop-color="#F0ECB4" offset=".4512"/>
<stop stop-color="#BB8C3D" offset=".6707"/>
<stop stop-color="#BA8A3A" offset=".8366"/>
<stop stop-color="#F0ECB4" offset="1"/>
</linearGradient>
<polygon class="st24" points="156.3 250.4 147.3 249.6 154.9 254.4 151.3 262.6 158.3 256.9 165.1 262.8 161.7 254.5 169.6 249.8 160.5 250.4 158.5 241.7"/>
<linearGradient id="k" x1="335.91" x2="356.74" y1="-210.77" y2="-207.79" gradientTransform="matrix(-.8002 -.5998 .5998 -.8002 593.39 294.68)" gradientUnits="userSpaceOnUse">
<stop stop-color="#D9A048" offset="0"/>
<stop stop-color="#D39C43" offset=".081767"/>
<stop stop-color="#C1903B" offset=".1818"/>
<stop stop-color="#BA8A3A" offset=".222"/>
<stop stop-color="#F0ECB4" offset=".4512"/>
<stop stop-color="#BB8C3D" offset=".6707"/>
<stop stop-color="#BA8A3A" offset=".8366"/>
<stop stop-color="#F0ECB4" offset="1"/>
</linearGradient>
<polygon class="st25" points="188.8 250.9 180.2 250.1 187.5 254.7 184 262.6 190.7 257.1 197.2 262.8 194 254.8 201.5 250.3 192.8 250.9 190.9 242.5"/>
<linearGradient id="j" x1="347.05" x2="372.4" y1="-218.86" y2="-215.23" gradientTransform="matrix(-.8002 -.5998 .5998 -.8002 593.39 294.68)" gradientUnits="userSpaceOnUse">
<stop stop-color="#D9A048" offset="0"/>
<stop stop-color="#D39C43" offset=".081767"/>
<stop stop-color="#C1903B" offset=".1818"/>
<stop stop-color="#BA8A3A" offset=".222"/>
<stop stop-color="#F0ECB4" offset=".4512"/>
<stop stop-color="#BB8C3D" offset=".6707"/>
<stop stop-color="#BA8A3A" offset=".8366"/>
<stop stop-color="#F0ECB4" offset="1"/>
</linearGradient>
<polygon class="st26" points="173 248.3 162.5 247.3 171.4 252.9 167.2 262.6 175.3 255.9 183.2 262.8 179.3 253.1 188.5 247.6 177.9 248.4 175.6 238.1"/>
</svg>